<svg xmlns="http://www.w3.org/2000/svg" xmlns:xlink="http://www.w3.org/1999/xlink" width="30" height="30" viewBox="0 0 30 30">
  <defs>
    <clipPath id="clip-path">
      <path id="Path_140" data-name="Path 140" d="M30,15A15,15,0,1,1,15,0,15,15,0,0,1,30,15Z" transform="translate(7.9 0.65)" fill="none"/>
    </clipPath>
  </defs>
  <g id="Layer_2" data-name="Layer 2" transform="translate(-7.9 -0.65)">
    <g id="Layer_1" data-name="Layer 1">
      <g id="Group_13" data-name="Group 13" clip-path="url(#clip-path)">
        <rect id="Rectangle_37" data-name="Rectangle 37" width="19.11" height="10.22" fill="#00237c"/>
        <path id="Path_130" data-name="Path 130" d="M5.24,0H0V3.21l25.59,16.9,6.22-2.57Z" fill="#fff"/>
        <path id="Path_131" data-name="Path 131" d="M0,.27V2.48L25.93,19.6l1.01-1.54Z" fill="#cf142b"/>
        <rect id="Rectangle_38" data-name="Rectangle 38" width="19.11" height="10.22" transform="translate(26.92)" fill="#00237c"/>
        <path id="Path_132" data-name="Path 132" d="M40.78,0h5.25V3.21L20.44,20.11l-6.23-2.57Z" fill="#fff"/>
        <path id="Path_133" data-name="Path 133" d="M46.03.27V2.48L20.1,19.6l-1.01-1.54Z" fill="#cf142b"/>
        <rect id="Rectangle_39" data-name="Rectangle 39" width="19.11" height="10.22" transform="translate(26.92 20.59)" fill="#00237c"/>
        <path id="Path_134" data-name="Path 134" d="M40.78,30.81h5.25V27.6L20.44,10.71l-6.23,2.56Z" fill="#fff"/>
        <path id="Path_135" data-name="Path 135" d="M46.03,30.55V28.34L20.1,11.22l-1.01,1.54Z" fill="#cf142b"/>
        <rect id="Rectangle_40" data-name="Rectangle 40" width="19.11" height="10.22" transform="translate(0 20.59)" fill="#00237c"/>
        <path id="Path_136" data-name="Path 136" d="M5.24,30.81H0V27.6L25.59,10.71l6.22,2.56Z" fill="#fff"/>
        <path id="Path_137" data-name="Path 137" d="M0,30.55V28.34L25.93,11.22l1.01,1.54Z" fill="#cf142b"/>
        <path id="Path_138" data-name="Path 138" d="M46.03,10.22H26.96V0H18.99V10.22H0V20.36H18.99V30.81h7.97V20.36H46.03Z" fill="#fff"/>
        <path id="Path_139" data-name="Path 139" d="M46.03,12.29H25.27V0H20.68V12.29H0v6H20.68V30.81h4.59V18.29H46.03Z" fill="#cf142b"/>
      </g>
    </g>
  </g>
</svg>
