<svg xmlns="http://www.w3.org/2000/svg" xmlns:xlink="http://www.w3.org/1999/xlink" width="30" height="30" viewBox="0 0 30 30">
  <defs>
    <clipPath id="clip-path">
      <path id="Path_129" data-name="Path 129" d="M30,15A15,15,0,1,1,15,0,15,15,0,0,1,30,15Z" fill="none"/>
    </clipPath>
  </defs>
  <g id="Layer_22" data-name="Layer 22" transform="translate(-2.78 -3.07)">
    <g id="Layer_1" data-name="Layer 1" transform="translate(2.78 3.07)">
      <g id="Group_12" data-name="Group 12" clip-path="url(#clip-path)">
        <rect id="Rectangle_36" data-name="Rectangle 36" width="35.71" height="35.97" transform="translate(-2.78 -3.07)" fill="#243f9c"/>
        <path id="Path_117" data-name="Path 117" d="M17.84,6.05l.42,1.27h1.33l-1.08.78.42,1.28-1.09-.79-1.08.79.42-1.28-1.09-.78h1.34Z" transform="translate(-2.78 -3.07)" fill="#fcec00"/>
        <path id="Path_118" data-name="Path 118" d="M17.84,26.59l.42,1.27h1.33l-1.08.79.42,1.27-1.09-.79-1.08.79.42-1.27-1.09-.79h1.34Z" transform="translate(-2.78 -3.07)" fill="#fcec00"/>
        <path id="Path_119" data-name="Path 119" d="M28.13,16.35l.42,1.28h1.33l-1.08.78.42,1.27-1.09-.78-1.08.78.42-1.27-1.09-.78h1.34Z" transform="translate(-2.78 -3.07)" fill="#fcec00"/>
        <path id="Path_120" data-name="Path 120" d="M7.57,16.32l.41,1.27H9.32l-1.08.79.41,1.27-1.08-.79-1.08.79.41-1.27-1.08-.79H7.16Z" transform="translate(-2.78 -3.07)" fill="#fcec00"/>
        <path id="Path_121" data-name="Path 121" d="M8.94,11.11l.41,1.27h1.34l-1.08.79.41,1.27-1.08-.78-1.08.78.41-1.27-1.08-.79H8.53Z" transform="translate(-2.78 -3.07)" fill="#fcec00"/>
        <path id="Path_122" data-name="Path 122" d="M12.6,7.35l.42,1.27h1.34l-1.09.78.42,1.28L12.6,9.89l-1.08.79.42-1.28-1.09-.78h1.34Z" transform="translate(-2.78 -3.07)" fill="#fcec00"/>
        <path id="Path_123" data-name="Path 123" d="M26.57,11.11l.42,1.27h1.33l-1.08.79.42,1.27-1.09-.78-1.08.78.42-1.27-1.09-.79h1.34Z" transform="translate(-2.78 -3.07)" fill="#fcec00"/>
        <path id="Path_124" data-name="Path 124" d="M22.88,7.35l.41,1.27h1.34l-1.08.78.41,1.28-1.08-.79-1.08.79.41-1.28-1.08-.78h1.33Z" transform="translate(-2.78 -3.07)" fill="#fcec00"/>
        <path id="Path_125" data-name="Path 125" d="M8.94,21.39l.41,1.27h1.34l-1.08.78.41,1.27-1.08-.78-1.08.78.41-1.27-1.08-.78H8.53Z" transform="translate(-2.78 -3.07)" fill="#fcec00"/>
        <path id="Path_126" data-name="Path 126" d="M12.6,25.05l.42,1.27h1.34l-1.09.79.42,1.27-1.09-.79-1.08.79.42-1.27-1.09-.79h1.34Z" transform="translate(-2.78 -3.07)" fill="#fcec00"/>
        <path id="Path_127" data-name="Path 127" d="M26.57,21.39l.42,1.27h1.33l-1.08.78.42,1.27-1.09-.78-1.08.78.42-1.27-1.09-.78h1.34Z" transform="translate(-2.78 -3.07)" fill="#fcec00"/>
        <path id="Path_128" data-name="Path 128" d="M22.88,25.05l.41,1.27h1.34l-1.08.79.41,1.27-1.08-.79-1.08.79.41-1.27-1.08-.79h1.33Z" transform="translate(-2.78 -3.07)" fill="#fcec00"/>
      </g>
    </g>
  </g>
</svg>
