<svg xmlns="http://www.w3.org/2000/svg" width="40" height="40" viewBox="0 0 40 40">
  <g id="Group_16" data-name="Group 16" transform="translate(-723.5 -806)">
    <g id="Path_142" data-name="Path 142" transform="translate(723.5 806)" fill="none">
      <path d="M20,0A20,20,0,1,1,0,20,20,20,0,0,1,20,0Z" stroke="none"/>
      <path d="M 20 3 C 15.45912933349609 3 11.19005966186523 4.768310546875 7.979179382324219 7.979179382324219 C 4.768310546875 11.19005966186523 3 15.45912933349609 3 20 C 3 24.54087066650391 4.768310546875 28.80994033813477 7.979179382324219 32.02082061767578 C 11.19005966186523 35.231689453125 15.45912933349609 37 20 37 C 24.54087066650391 37 28.80994033813477 35.231689453125 32.02082061767578 32.02082061767578 C 35.231689453125 28.80994033813477 37 24.54087066650391 37 20 C 37 15.45912933349609 35.231689453125 11.19005966186523 32.02082061767578 7.979179382324219 C 28.80994033813477 4.768310546875 24.54087066650391 3 20 3 M 20 0 C 31.04570007324219 0 40 8.954299926757813 40 20 C 40 31.04570007324219 31.04570007324219 40 20 40 C 8.954299926757813 40 0 31.04570007324219 0 20 C 0 8.954299926757813 8.954299926757813 0 20 0 Z" stroke="none" fill="#fff"/>
    </g>
    <g id="Group_2" data-name="Group 2" transform="translate(551.611 123.111)">
      <path id="Path_3" data-name="Path 3" d="M2297,698h19.778" transform="translate(-2115 4.889)" fill="none" stroke="#fff" stroke-width="3"/>
      <path id="Path_4" data-name="Path 4" d="M0,0H19.778" transform="translate(191.889 712.777) rotate(-90)" fill="none" stroke="#fff" stroke-width="3"/>
    </g>
  </g>
</svg>
